<?xml version="1.0" encoding="UTF-8"?>
<svg id="Capa_2" data-name="Capa 2" xmlns="http://www.w3.org/2000/svg" viewBox="0 0 150 150">
  <defs>
    <style>
      .cls-1 {
        fill: #689f63;
      }
    </style>
  </defs>
  <path class="cls-1" d="M75.02,139.82c-1.74,0-3.46-.46-4.98-1.33l-15.86-9.39c-2.37-1.32-1.21-1.79-.43-2.06,3.16-1.11,3.8-1.36,7.17-3.27.35-.2.82-.13,1.18.08l12.18,7.23c.44.24,1.06.24,1.47,0l47.5-27.42c.44-.25.73-.76.73-1.28v-54.81c0-.55-.29-1.03-.73-1.31l-47.48-27.4c-.44-.26-1.02-.26-1.46,0l-47.47,27.4c-.46.26-.75.77-.75,1.3v54.81c0,.52.29,1.02.74,1.27l13.01,7.51c7.06,3.53,11.38-.63,11.38-4.82v-54.1c0-.77.61-1.37,1.38-1.37h6.02c.75,0,1.37.59,1.37,1.37v54.12c0,9.42-5.14,14.83-14.07,14.83-2.75,0-4.91,0-10.95-2.97l-12.46-7.18c-3.08-1.78-4.98-5.11-4.98-8.67v-54.81c0-3.57,1.9-6.9,4.98-8.66l47.55-27.43c3.01-1.7,7-1.7,9.99,0l47.49,27.44c3.07,1.77,4.98,5.09,4.98,8.66v54.81c0,3.56-1.91,6.87-4.98,8.66l-47.49,27.43c-1.52.88-3.25,1.33-5.01,1.33"/>
  <path class="cls-1" d="M89.7,102.05c-20.78,0-25.14-9.54-25.14-17.54,0-.76.61-1.37,1.38-1.37h6.14c.68,0,1.25.49,1.36,1.16.93,6.25,3.69,9.41,16.25,9.41,10.01,0,14.27-2.26,14.27-7.57,0-3.06-1.21-5.33-16.77-6.85-13.01-1.28-21.05-4.15-21.05-14.55,0-9.58,8.09-15.29,21.63-15.29,15.21,0,22.75,5.28,23.7,16.62.04.39-.11.77-.37,1.06-.26.27-.63.44-1.01.44h-6.17c-.64,0-1.2-.45-1.33-1.07-1.49-6.58-5.08-8.68-14.84-8.68-10.93,0-12.2,3.8-12.2,6.66,0,3.46,1.5,4.47,16.24,6.42,14.6,1.94,21.53,4.67,21.53,14.93s-8.63,16.28-23.69,16.28"/>
</svg>