<?xml version="1.0" encoding="UTF-8"?>
<svg xmlns="http://www.w3.org/2000/svg" viewBox="0 0 150 150">
  <defs>
    <style>
      .cls-1 {
        fill: #dd0031;
      }

      .cls-2, .cls-3 {
        fill: #fff;
      }

      .cls-4 {
        fill: #c3002f;
      }

      .cls-3 {
        stroke: #fff;
        stroke-miterlimit: 10;
        stroke-width: 10px;
      }
    </style>
  </defs>
  <g id="Capa_4" data-name="Capa 4">
    <polygon class="cls-3" points="75 10.43 75 10.43 75 10.43 14.89 31.87 24.06 111.35 75 139.57 75 139.57 75 139.57 125.94 111.35 135.11 31.87 75 10.43"/>
  </g>
  <g id="Capa_2" data-name="Capa 2">
    <g>
      <polygon class="cls-1" points="75 10.81 75 10.81 75 10.81 14.89 32.24 24.06 111.73 75 139.94 75 139.94 75 139.94 125.94 111.73 135.11 32.24 75 10.81"/>
      <polygon class="cls-4" points="75 10.81 75 25.14 75 25.08 75 90.48 75 90.48 75 139.94 75 139.94 125.94 111.73 135.11 32.24 75 10.81"/>
      <path class="cls-2" d="M75,25.08l-37.58,84.26h14.01l7.55-18.85h31.9l7.55,18.85h14.01L75,25.08h0ZM85.98,78.86h-21.95l10.98-26.41,10.98,26.41Z"/>
    </g>
  </g>
</svg>