<?xml version="1.0" encoding="UTF-8"?>
<svg id="Capa_2" data-name="Capa 2" xmlns="http://www.w3.org/2000/svg" viewBox="0 0 150 150">
  <defs>
    <style>
      .cls-1 {
        fill: #662d91;
      }

      .cls-2 {
        fill: #c8e9eb;
      }

      .cls-3 {
        fill: #a179dc;
      }

      .cls-4 {
        fill: #00acd2;
      }

      .cls-5 {
        fill: #fff;
      }

      .cls-6 {
        fill: #280068;
      }

      .cls-7 {
        fill: #390091;
      }
    </style>
  </defs>
  <g>
    <path class="cls-4" d="M96.74,40.83c-13.13-11.34-42.19-16.95-63.96-.68-20.43,13.69-21.44,38.72-21.44,38.72,3.48,13.69,17.29,26.83,43.89,20.43-3.14-18.41,3.02-64.99,41.52-58.48h0Z"/>
    <path class="cls-2" d="M83.06,85.36c-14.37,11.93-58.11,30.12-71.72-6.47-3.25,17.04,5.77,45.4,30.75,56.12,22.07,10.84,45.08-1.71,45.08-1.71,10.12-9.86,14.73-28.1-4.11-47.94"/>
    <path class="cls-1" d="M57.1,68.63c17.51,6.48,54.95,34.58,30.06,64.66,16.38-5.71,35.6-27.53,32.39-54.53-1.65-24.54-22.82-37.93-22.82-37.93-13.6-3.83-31.87,1.56-39.63,27.79"/>
  </g>
  <g>
    <path class="cls-3" d="M139.01,26.24c0-.91-.19-1.71-.59-2.4-.39-.68-.96-1.24-1.74-1.69-6.4-3.69-12.8-7.36-19.19-11.06-1.72-1-3.4-.96-5.11.05-2.55,1.5-15.29,8.8-19.09,11-1.56.91-2.33,2.29-2.33,4.09,0,7.42,0,14.83,0,22.25,0,.89.19,1.67.56,2.35.39.7.97,1.28,1.76,1.74,3.8,2.2,16.55,9.5,19.09,11,1.71,1.01,3.38,1.05,5.11.05,6.39-3.69,12.8-7.37,19.19-11.06.79-.46,1.38-1.04,1.76-1.74.37-.68.56-1.46.56-2.35,0,0,0-14.83,0-22.25"/>
    <path class="cls-6" d="M115.07,37.29l-23.53,13.55c.39.7.97,1.28,1.76,1.74,3.8,2.2,16.55,9.5,19.09,11,1.71,1.01,3.38,1.05,5.11.05,6.39-3.69,12.8-7.37,19.19-11.06.79-.46,1.38-1.04,1.76-1.74l-23.39-13.55"/>
    <path class="cls-7" d="M139.01,26.24c0-.91-.19-1.71-.59-2.4l-23.36,13.45,23.39,13.55c.37-.68.56-1.46.56-2.35,0,0,0-14.83,0-22.25"/>
    <path class="cls-5" d="M128.92,32.23v2.53h2.53v-2.53h1.27v2.53h2.53v1.27h-2.53v2.53h2.53v1.27h-2.53v2.53h-1.27v-2.53h-2.53v2.53h-1.27v-2.53h-2.53v-1.27h2.53v-2.53h-2.53v-1.27h2.53v-2.53h1.27ZM131.46,36.03h-2.53v2.53h2.53v-2.53Z"/>
    <path class="cls-5" d="M115.12,19.51c6.61,0,12.37,3.59,15.46,8.92l-.03-.05-7.77,4.48c-1.53-2.59-4.34-4.34-7.56-4.38h-.1c-4.91,0-8.89,3.98-8.89,8.89,0,1.61.43,3.11,1.17,4.41,1.53,2.68,4.41,4.48,7.72,4.48s6.22-1.83,7.75-4.53l-.04.06,7.76,4.5c-3.06,5.29-8.74,8.86-15.27,8.94h-.2c-6.63,0-12.41-3.61-15.49-8.97-1.5-2.62-2.37-5.65-2.37-8.89,0-9.86,8-17.86,17.86-17.86Z"/>
  </g>
</svg>