<?xml version="1.0" encoding="UTF-8"?>
<svg id="Capa_2" data-name="Capa 2" xmlns="http://www.w3.org/2000/svg" viewBox="0 0 150 150">
  <defs>
    <style>
      .cls-1 {
        fill: #e77500;
      }
    </style>
  </defs>
  <path class="cls-1" d="M107.29,10.53H42.71c-17.69,0-32.18,14.49-32.18,32.18v64.58c0,17.69,14.49,32.18,32.18,32.18h64.58c17.69,0,32.18-14.49,32.18-32.18V42.71c0-17.69-14.49-32.18-32.18-32.18ZM80.22,117.95c-23.87,3.2-47.1-13.75-49.66-36.34-2.98-26.43,14.28-47.74,40.71-49.45,11.51-.75,23.23-.43,34.85,0,1.92.11,8.74.11,8.74.11v3.3c.21,3.52-.96,8.53-3.52,10.55-3.94,3.09-9.27,5.01-14.28,5.75-6.61.96-13.32.11-20.03.32-14.81.32-24.3,6.82-26.22,18.01-1.92,11.3,1.6,20.35,12.36,25.47,11.83,5.65,23.87,2.34,34.42-10.55-13.32-2.56-30.37,4.16-32.18-18.22h53.71c4.37,26.64-11.62,47.32-38.9,51.05Z"/>
</svg>