<?xml version="1.0" encoding="UTF-8"?>
<svg id="Capa_2" data-name="Capa 2" xmlns="http://www.w3.org/2000/svg" xmlns:xlink="http://www.w3.org/1999/xlink" viewBox="0 0 150 150">
  <defs>
    <style>
      .cls-1 {
        fill: #1b1e2e;
      }

      .cls-2 {
        fill: #69d3a7;
      }

      .cls-3 {
        fill: url(#Degradado_sin_nombre_4);
      }

      .cls-4 {
        fill: url(#Degradado_sin_nombre_3);
      }

      .cls-5 {
        fill: url(#Degradado_sin_nombre_2);
      }
    </style>
    <linearGradient id="Degradado_sin_nombre_4" data-name="Degradado sin nombre 4" x1="144.74" y1="246.58" x2="86.91" y2="209.14" gradientTransform="translate(0 322) scale(1 -1)" gradientUnits="userSpaceOnUse">
      <stop offset=".08" stop-color="#69d3a7"/>
      <stop offset="1" stop-color="#69d3a7" stop-opacity="0"/>
    </linearGradient>
    <linearGradient id="Degradado_sin_nombre_2" data-name="Degradado sin nombre 2" x1="53.44" y1="310.85" x2="17.11" y2="233.79" gradientTransform="translate(0 322) scale(1 -1)" gradientUnits="userSpaceOnUse">
      <stop offset="0" stop-color="#69d3a7"/>
      <stop offset=".82" stop-color="#2ab586"/>
      <stop offset="1" stop-color="#1cae7f"/>
    </linearGradient>
    <linearGradient id="Degradado_sin_nombre_3" data-name="Degradado sin nombre 3" x1="10.13" y1="217.39" x2="105.4" y2="187.49" gradientTransform="translate(0 322) scale(1 -1)" gradientUnits="userSpaceOnUse">
      <stop offset=".08" stop-color="#1cae7f"/>
      <stop offset=".16" stop-color="#1ca379"/>
      <stop offset=".32" stop-color="#1c8568"/>
      <stop offset=".52" stop-color="#1b554d"/>
      <stop offset=".72" stop-color="#1b1e2e"/>
    </linearGradient>
  </defs>
  <path class="cls-1" d="M55.75,61.66c5.24,0,9.49,2.8,11.67,7.65l.16.38,8.78-2.99-.18-.45c-3.4-8.29-11.24-13.43-20.44-13.43-6.48,0-11.74,2.07-16.09,6.34-4.32,4.24-6.5,9.57-6.5,15.84s2.2,11.54,6.5,15.76c4.35,4.27,9.61,6.34,16.09,6.34,9.2,0,17.03-5.15,20.44-13.43l.18-.45-8.8-2.99-.15.4c-1.96,4.79-6.33,7.64-11.67,7.64-3.64,0-6.72-1.27-9.15-3.78-2.47-2.54-3.71-5.74-3.71-9.49s1.21-6.91,3.71-9.57c2.44-2.51,5.51-3.78,9.15-3.78Z"/>
  <path class="cls-3" d="M93.88,136.87l-2.62-8.63c23.62-7.17,39.49-28.57,39.49-53.23,0-6.8-1.21-13.46-3.61-19.76l8.43-3.2c2.8,7.34,4.21,15.05,4.21,22.98-.01,28.65-18.45,53.51-45.9,61.85Z"/>
  <path class="cls-2" d="M128.31,58.7c-7.21-23.54-28.63-39.34-53.32-39.34-3.35,0-6.71.3-9.98.89l-1.6-8.88c3.79-.68,7.69-1.04,11.58-1.04,28.66,0,53.55,18.37,61.93,45.71l-8.62,2.66Z"/>
  <path class="cls-5" d="M14.37,97.81c-2.75-7.28-4.15-14.96-4.15-22.8,0-33.41,25.08-61.07,58.33-64.35l.89,8.97c-28.62,2.82-50.21,26.63-50.21,55.37,0,6.75,1.2,13.36,3.56,19.62l-8.43,3.18Z"/>
  <polygon class="cls-1" points="110.75 53.64 98.24 85.33 85.64 53.64 75.33 53.64 93.01 96.89 80.13 128.12 89.15 129.92 120.48 53.64 110.75 53.64"/>
  <path class="cls-4" d="M81.76,124.19l-1.9,4.6c-.44,1.05-1.43,1.77-2.55,1.81-.78.03-1.54.05-2.33.05-24.75,0-46.78-16.57-53.59-40.29l-8.67,2.48c7.91,27.56,33.5,46.81,62.25,46.82h.01c.9,0,1.8-.01,2.7-.05,4.62-.19,8.75-3.1,10.53-7.39l2.56-6.23-9.01-1.8Z"/>
</svg>