<?xml version="1.0" encoding="UTF-8"?>
<svg id="Capa_2" data-name="Capa 2" xmlns="http://www.w3.org/2000/svg" viewBox="0 0 150 150">
  <defs>
    <style>
      .cls-1 {
        fill: #f5ea0e;
      }

      .cls-2 {
        fill: #a3cd3a;
      }

      .cls-3 {
        fill: #7ab943;
      }

      .cls-4 {
        fill: #009d58;
      }
    </style>
  </defs>
  <path class="cls-3" d="M30.83,66.1l.51,6.78,2.35-17.57h6.12l2.27,17.57.48-6.76,5.3,3.5-1.63,11.9h-6.85l-2.67-15.72-2.6,15.72h-7l-1.6-11.93,5.32-3.51Z"/>
  <path class="cls-4" d="M57.03,70.58v11.1h-5.76v-7.35l5.76-3.75Z"/>
  <path class="cls-4" d="M58.83,69.05v-6.85h6.17v2.48c.26-.8.71-1.45,1.34-1.94.63-.5,1.48-.74,2.54-.74,1.74,0,3.03.4,3.86,1.21.83.81,1.25,1.96,1.25,3.45v15.04h-6.07v-14.56c0-.43-.11-.79-.33-1.09-.22-.3-.57-.45-1.04-.45-.63,0-1.05.22-1.25.65-.2.44-.3,1.02-.3,1.74v4.75l-6.17-3.67Z"/>
  <path class="cls-2" d="M110.66,69.13v-1.91c0-.54-.08-.97-.23-1.3-.15-.33-.47-.49-.96-.49-.63,0-1.07.23-1.33.69-.26.46-.39,1.01-.39,1.65v13.4h-5.99v-18.97h5.99v2.2c.28-.81.76-1.42,1.44-1.81.68-.4,1.63-.6,2.87-.6,1,0,1.87.17,2.61.51.74.34,1.25.8,1.56,1.39.51-.66,1.09-1.14,1.72-1.44.63-.3,1.51-.45,2.63-.45,2.01,0,3.4.45,4.19,1.36.78.91,1.17,2.23,1.17,3.95l-.07,13.87h-6.17v-13.95c0-1.23-.42-1.84-1.26-1.84-.58,0-1,.21-1.26.63-.26.42-.39.93-.39,1.52v5.18l-6.13-3.58Z"/>
  <polygon class="cls-2" points="25.12 67.81 23.45 55.31 29.87 55.31 30.57 64.67 25.12 67.81"/>
  <polygon class="cls-4" points="43.06 64.65 43.72 55.31 50.22 55.31 48.49 67.94 43.06 64.65"/>
  <rect class="cls-2" x="51.27" y="55.53" width="5.76" height="4.35"/>
  <polygon class="cls-3" points="51.27 72.73 51.27 62.17 57.03 62.17 57.03 69.06 51.27 72.73"/>
  <polygon class="cls-3" points="65.25 74.25 65.25 81.53 59.08 81.53 59.08 70.32 65.25 74.25"/>
  <path class="cls-4" d="M82.2,70.46v11.1h-5.76v-7.35l5.76-3.75Z"/>
  <rect class="cls-2" x="76.44" y="55.41" width="5.76" height="4.35"/>
  <polygon class="cls-3" points="76.44 72.6 76.44 62.05 82.2 62.05 82.2 68.93 76.44 72.6"/>
  <g>
    <polygon class="cls-1" points="14.09 71.57 23.34 71.57 22.31 66.43 11 66.43 14.09 71.57"/>
    <polygon class="cls-1" points="18.46 79.03 24.63 79.03 23.6 73.88 15.37 73.88 18.46 79.03"/>
  </g>
  <g>
    <polygon class="cls-1" points="136.91 71.57 128.17 71.57 128.69 66.43 140 66.43 136.91 71.57"/>
    <polygon class="cls-1" points="132.54 79.03 127.4 79.03 127.92 73.88 135.63 73.88 132.54 79.03"/>
  </g>
  <g>
    <path class="cls-2" d="M99.58,74.21v6.98h-5.92v-2.05c-.41.8-.88,1.38-1.42,1.73-.54.35-1.34.52-2.4.52-1.85,0-3.12-.43-3.8-1.29-.69-.86-1.03-2.13-1.03-3.83v-14.3h5.95v14.36c0,.53.11.91.32,1.13.21.22.55.33,1,.33.61,0,.99-.2,1.15-.59s.24-.96.24-1.69v-5.04s5.92,3.73,5.92,3.73Z"/>
    <polygon class="cls-3" points="93.68 68.9 93.69 61.83 99.58 61.83 99.58 72.62 93.68 68.9"/>
  </g>
  <polygon class="cls-4" points="116.85 73.98 116.85 81.17 110.72 81.17 110.72 70.34 116.85 73.98"/>
</svg>