<?xml version="1.0" encoding="UTF-8"?>
<svg xmlns="http://www.w3.org/2000/svg" viewBox="0 0 150 150">
  <defs>
    <style>
      .cls-1 {
        fill: #fb971f;
      }

      .cls-2 {
        fill: #908f8b;
      }

      .cls-3 {
        fill: #c4c1ba;
      }

      .cls-4 {
        fill: #6e6d6a;
      }

      .cls-5 {
        fill: #d9d5ce;
      }

      .cls-6 {
        fill: #fff;
        stroke: #fff;
        stroke-miterlimit: 10;
        stroke-width: 10px;
      }

      .cls-7 {
        fill: #fdc00f;
      }
    </style>
  </defs>
  <g id="Capa_4" data-name="Capa 4">
    <g>
      <path class="cls-6" d="M101.22,82.12c-1.35-1.35-1.35-3.54,0-4.89l-35.8-35.8-5.53,5.53,10.54,8.34,29.28,31.47c2.04,2.04,5.34,2.04,7.37,0l1.84-1.84-2.82-2.82c-1.35,1.35-3.54,1.35-4.89,0Z"/>
      <path class="cls-6" d="M70.94,35.9l-5.53,5.53,35.8,35.8c1.35-1.35,3.54-1.35,4.88,0,1.35,1.35,1.35,3.54,0,4.89l2.82,2.82,1.84-1.84c2.04-2.04,2.04-5.34,0-7.37l-31.65-29.46-8.17-10.36Z"/>
      <path class="cls-3" d="M101.22,82.12c-1.35-1.35-1.35-3.54,0-4.89l-.73-.73c-1.75,1.75-1.75,4.59,0,6.34,1.75,1.75,4.59,1.75,6.34,0l-.73-.72c-1.35,1.35-3.54,1.35-4.89,0Z"/>
      <path class="cls-2" d="M106.1,77.24c1.35,1.35,1.35,3.54,0,4.89l.73.72c1.75-1.75,1.75-4.59,0-6.34-1.75-1.75-4.59-1.75-6.34,0l.73.73c1.35-1.35,3.54-1.35,4.88,0Z"/>
      <path class="cls-4" d="M106.77,76.47c-1.75-1.7-4.55-1.69-6.28.04-1.64,1.64-1.72,4.22-.29,5.98.39-.06.79-.15,1.08-.32-.02-.02-.04-.03-.06-.05-1.35-1.35-1.35-3.54,0-4.89,1.35-1.35,3.54-1.35,4.88,0,.13.13.23.27.33.41.22-.27.31-.72.34-1.18Z"/>
      <path class="cls-6" d="M53.11,11.87l13.68,16.89-4.1,9.65-9.65,4.1-16.89-13.68c-.95,6.19.93,12.73,5.7,17.49,7.94,7.94,20.82,7.94,28.76,0,7.94-7.94,7.94-20.82,0-28.76-4.77-4.77-11.31-6.65-17.49-5.7Z"/>
      <path class="cls-6" d="M138.39,97.14l-16.89-13.68-9.64,4.1-4.1,9.65,13.68,16.89c-6.19.95-12.73-.93-17.49-5.69-7.94-7.94-7.94-20.82,0-28.76,7.94-7.94,20.82-7.94,28.76,0,4.77,4.77,6.65,11.31,5.69,17.49Z"/>
      <path class="cls-6" d="M83.02,111.26l.2-16.76-8.37-.86c-.42-1.32-.93-2.59-1.53-3.82l5.47-6.4-11.71-12-6.53,5.31c-1.2-.62-2.47-1.17-3.77-1.62l-.67-8.39-8.81-.11v19.07c.07,0,.13,0,.2,0,9.25.11,16.67,7.71,16.56,16.96-.11,9.19-7.6,16.55-16.76,16.55v19.08l7.95.09.86-8.37c1.32-.42,2.58-.93,3.81-1.53l6.41,5.46,11.99-11.71-5.31-6.53c.63-1.21,1.17-2.47,1.62-3.78l8.39-.67Z"/>
      <path class="cls-6" d="M47.1,119.21c-9.26-.11-16.67-7.7-16.56-16.96.11-9.19,7.6-16.55,16.76-16.55v-19.07l-7.95-.09-.87,8.37c-1.31.42-2.58.93-3.79,1.52l-6.42-5.46-12,11.71,5.31,6.54c-.63,1.2-1.16,2.46-1.61,3.75l-8.4.68-.2,16.76,8.37.87c.42,1.31.93,2.58,1.52,3.8l-5.45,6.42,11.71,11.99,6.54-5.31c1.21.63,2.46,1.17,3.77,1.62l.67,8.39,8.81.11v-19.08c-.07,0-.13,0-.2,0Z"/>
      <path class="cls-6" d="M47.5,85.69c9.25.11,16.67,7.71,16.56,16.96-.11,9.19-7.6,16.55-16.76,16.55v3.13c11.01,0,19.93-8.92,19.93-19.93s-8.92-19.93-19.93-19.93v3.22c.07,0,.13,0,.2,0Z"/>
      <path class="cls-6" d="M47.1,119.21c-9.26-.11-16.67-7.7-16.56-16.96.11-9.19,7.6-16.55,16.76-16.55v-3.22c-11.01,0-19.93,8.92-19.93,19.93s8.92,19.93,19.93,19.93v-3.13c-.07,0-.13,0-.2,0Z"/>
    </g>
  </g>
  <g id="Capa_2" data-name="Capa 2">
    <g>
      <g>
        <g>
          <path class="cls-4" d="M101.59,81.59c-1.35-1.35-1.35-3.54,0-4.89l-35.8-35.8-5.53,5.53,10.54,8.34,29.28,31.47c2.04,2.04,5.34,2.04,7.37,0l1.84-1.84-2.82-2.82c-1.35,1.35-3.54,1.35-4.89,0Z"/>
          <path class="cls-3" d="M71.31,35.38l-5.53,5.53,35.8,35.8c1.35-1.35,3.54-1.35,4.88,0,1.35,1.35,1.35,3.54,0,4.89l2.82,2.82,1.84-1.84c2.04-2.04,2.04-5.34,0-7.37l-31.65-29.46-8.17-10.36Z"/>
          <path class="cls-3" d="M101.59,81.59c-1.35-1.35-1.35-3.54,0-4.89l-.73-.73c-1.75,1.75-1.75,4.59,0,6.34,1.75,1.75,4.59,1.75,6.34,0l-.73-.72c-1.35,1.35-3.54,1.35-4.89,0Z"/>
          <path class="cls-2" d="M106.47,76.71c1.35,1.35,1.35,3.54,0,4.89l.73.72c1.75-1.75,1.75-4.59,0-6.34-1.75-1.75-4.59-1.75-6.34,0l.73.73c1.35-1.35,3.54-1.35,4.88,0Z"/>
          <path class="cls-2" d="M77.94,47.15l-6.81-8.64-7.75,7.74,8.82,6.99,26.85,28.86c.04-.1,1.75.03,2.59-.46-.02-.02-.04-.03-.06-.05-1.35-1.35-1.35-3.54,0-4.89,1.35-1.35,3.54-1.35,4.88,0,.13.13.23.27.33.41.61-.73.21-2.78.31-2.82l-29.17-27.15Z"/>
          <path class="cls-4" d="M107.14,75.94c-1.75-1.7-4.55-1.69-6.28.04-1.64,1.64-1.72,4.22-.29,5.98.39-.06.79-.15,1.08-.32-.02-.02-.04-.03-.06-.05-1.35-1.35-1.35-3.54,0-4.89,1.35-1.35,3.54-1.35,4.88,0,.13.13.23.27.33.41.22-.27.31-.72.34-1.18Z"/>
          <path class="cls-4" d="M63.38,46.25l4.55,3.61c1.46-.81,2.84-1.81,4.07-3.05,1.11-1.11,2.03-2.35,2.8-3.65l-3.67-4.66-7.75,7.74Z"/>
          <path class="cls-5" d="M53.48,11.34l13.68,16.89-4.1,9.65-9.65,4.1-16.89-13.68c-.95,6.19.93,12.73,5.7,17.49,7.94,7.94,20.82,7.94,28.76,0,7.94-7.94,7.94-20.82,0-28.76-4.77-4.77-11.31-6.65-17.49-5.7Z"/>
          <path class="cls-2" d="M68.78,43.41s-.05.02-.08.03c-.37.12-.74.25-1.11.37-.17.04-.34.06-.51.1-.81.41-1.67.76-2.57,1.01-.16.05-.33.08-.49.12-2.75,2.16-5.77,2.85-8.62,2.51.14-.12.3-.25.49-.42,2.74-2.27,5.51-4.51,8.49-6.45.33-.22.67-.4,1.01-.58-1.29-1.28-2.3-2.27-2.3-2.27l-9.65,4.1-16.89-13.67c-.02.11-.02.22-.03.33l-.16-.13c-.95,6.19.93,12.73,5.69,17.49,7.94,7.94,20.82,7.94,28.76,0,.06-.06.11-.12.17-.18-.82-.7-1.56-1.49-2.21-2.35Z"/>
          <path class="cls-3" d="M70.24,45.05c-7.37,7.37-19.54,7.17-27.15-.43-3.44-3.44-5.45-7.86-5.78-12.53l15.64,12.75,12.09-4.98,4.98-12.09-13.16-15.21c4.65.36,9.56,1.96,12.94,5.34,7.6,7.6,7.8,19.78.44,27.15Z"/>
        </g>
        <g>
          <path class="cls-4" d="M81.9,66.72l13.41,12.58,8.35,10.54,5.53-5.53-21.06-21.06c-1.86,1.65-3.95,2.78-6.23,3.47Z"/>
          <path class="cls-3" d="M92.27,57.62c-.81,1.81-1.94,3.51-3.41,4.98-.23.23-.48.44-.72.65l21.06,21.06,5.53-5.53-10.36-8.17-12.1-13Z"/>
          <path class="cls-2" d="M91.23,59.57c-.67,1.08-1.85,1.7-2.78,2.63-1.43,1.43-2.68,2.94-4.44,3.75l12.84,11.95,6.99,8.82,7.75-7.75-8.64-6.82-11.72-12.58Z"/>
          <path class="cls-4" d="M103.84,86.71l-3.61-4.55c.81-1.46,1.81-2.83,3.04-4.07,1.12-1.11,2.35-2.03,3.65-2.8l4.66,3.67-7.75,7.75Z"/>
          <path class="cls-5" d="M138.76,96.62l-16.89-13.68-9.64,4.1-4.1,9.65,13.68,16.89c-6.19.95-12.73-.93-17.49-5.69-7.94-7.94-7.94-20.82,0-28.76,7.94-7.94,20.82-7.94,28.76,0,4.77,4.77,6.65,11.31,5.69,17.49Z"/>
          <path class="cls-2" d="M104.34,79.11c-.06.06-.12.11-.18.17-7.94,7.94-7.94,20.82,0,28.76,4.77,4.77,11.31,6.65,17.49,5.69l-.13-.16c.11-.01.22-.02.33-.03l-13.68-16.89,4.1-9.65s-.99-1-2.27-2.3c-.17.34-.36.69-.57,1.01-1.94,2.98-4.18,5.76-6.45,8.49-.16.2-.3.35-.41.5-.34-2.86.35-5.87,2.51-8.62.04-.16.07-.33.12-.49.25-.9.59-1.75,1.01-2.57.04-.17.05-.34.1-.51.12-.37.24-.74.37-1.11.01-.03.02-.06.04-.08-.86-.65-1.66-1.39-2.35-2.21Z"/>
          <path class="cls-3" d="M105.05,79.86c-7.36,7.37-7.17,19.54.43,27.15,3.44,3.44,7.86,5.45,12.52,5.78l-12.75-15.64,4.98-12.09,12.09-4.98,15.21,13.17c-.36-4.65-1.96-9.56-5.34-12.94-7.6-7.6-19.78-7.8-27.15-.43Z"/>
        </g>
      </g>
      <g>
        <path class="cls-1" d="M83.39,110.73l.2-16.76-8.37-.86c-.42-1.32-.93-2.59-1.53-3.82l5.47-6.4-11.71-12-6.53,5.31c-1.2-.62-2.47-1.17-3.77-1.62l-.67-8.39-8.81-.11v19.07c.07,0,.13,0,.2,0,9.25.11,16.67,7.71,16.56,16.96-.11,9.19-7.6,16.55-16.76,16.55v19.08l7.95.09.86-8.37c1.32-.42,2.58-.93,3.81-1.53l6.41,5.46,11.99-11.71-5.31-6.53c.63-1.21,1.17-2.47,1.62-3.78l8.39-.67Z"/>
        <path class="cls-7" d="M47.47,118.68c-9.26-.11-16.67-7.7-16.56-16.96.11-9.19,7.6-16.55,16.76-16.55v-19.07l-7.95-.09-.87,8.37c-1.31.42-2.58.93-3.79,1.52l-6.42-5.46-12,11.71,5.31,6.54c-.63,1.2-1.16,2.46-1.61,3.75l-8.4.68-.2,16.76,8.37.87c.42,1.31.93,2.58,1.52,3.8l-5.45,6.42,11.71,11.99,6.54-5.31c1.21.63,2.46,1.17,3.77,1.62l.67,8.39,8.81.11v-19.08c-.07,0-.13,0-.2,0Z"/>
        <path class="cls-7" d="M47.87,85.16c9.25.11,16.67,7.71,16.56,16.96-.11,9.19-7.6,16.55-16.76,16.55v3.13c11.01,0,19.93-8.92,19.93-19.93s-8.92-19.93-19.93-19.93v3.22c.07,0,.13,0,.2,0Z"/>
        <path class="cls-1" d="M47.47,118.68c-9.26-.11-16.67-7.7-16.56-16.96.11-9.19,7.6-16.55,16.76-16.55v-3.22c-11.01,0-19.93,8.92-19.93,19.93s8.92,19.93,19.93,19.93v-3.13c-.07,0-.13,0-.2,0Z"/>
      </g>
    </g>
  </g>
</svg>