<?xml version="1.0" encoding="UTF-8"?>
<svg xmlns="http://www.w3.org/2000/svg" viewBox="0 0 150 150">
  <defs>
    <style>
      .cls-1 {
        fill: #5c2d91;
      }

      .cls-2, .cls-3, .cls-4 {
        fill: #fff;
      }

      .cls-5 {
        fill: #f2f2f2;
      }

      .cls-3 {
        stroke: #fff;
        stroke-miterlimit: 10;
        stroke-width: 10px;
      }

      .cls-4 {
        isolation: isolate;
        opacity: .1;
      }
    </style>
  </defs>
  <g id="Capa_4" data-name="Capa 4">
    <circle class="cls-3" cx="75" cy="75" r="66"/>
  </g>
  <g id="Capa_2" data-name="Capa 2">
    <g>
      <circle class="cls-1" cx="75.92" cy="74.08" r="66.21"/>
      <path class="cls-4" d="M30.03,26.49C2.73,50.82.32,92.67,24.65,119.97c24.33,27.3,66.18,29.71,93.48,5.38,1.9-1.69,3.69-3.49,5.38-5.38L30.03,26.49Z"/>
      <path class="cls-2" d="M25.02,84.94c-.78.01-1.53-.3-2.07-.87-.55-.55-.86-1.29-.85-2.07,0-.78.3-1.52.85-2.07.53-.58,1.28-.9,2.07-.89.78,0,1.53.32,2.07.89.56.54.87,1.29.87,2.07,0,.78-.31,1.53-.87,2.07-.54.56-1.29.87-2.07.87Z"/>
      <path class="cls-2" d="M66.14,84.42h-5.42l-19.39-30.08c-.48-.74-.89-1.53-1.2-2.36h-.17c.18,1.72.25,3.45.21,5.17v27.27h-4.41v-37.72h5.73l18.87,29.55c.79,1.23,1.3,2.07,1.53,2.52h.1c-.22-1.84-.31-3.69-.27-5.54v-26.52h4.41v37.72Z"/>
      <path class="cls-2" d="M95.97,84.42h-20.05v-37.72h19.12v3.99h-14.61v12.54h13.61v3.97h-13.61v13.08h15.56l-.02,4.14Z"/>
      <path class="cls-2" d="M125.58,50.7h-10.97v33.72h-4.41v-33.72h-10.84v-3.99h26.21v3.99Z"/>
      <path class="cls-5" d="M63.76,110.08c-1.49.72-3.14,1.07-4.8,1.01-2.23.1-4.39-.77-5.94-2.38-1.52-1.7-2.32-3.93-2.23-6.21-.11-2.49.79-4.93,2.5-6.74,1.67-1.71,3.98-2.64,6.37-2.57,1.41-.05,2.82.2,4.14.72v2.07c-1.27-.7-2.69-1.06-4.14-1.03-1.84-.05-3.62.7-4.86,2.07-1.29,1.47-1.96,3.38-1.86,5.34-.1,1.85.53,3.67,1.74,5.07,1.18,1.26,2.85,1.95,4.57,1.88,1.59.04,3.16-.36,4.53-1.16l-.02,1.92Z"/>
      <path class="cls-5" d="M72.22,111.09c-1.67.05-3.27-.62-4.41-1.84-1.13-1.26-1.72-2.92-1.63-4.61-.1-1.79.51-3.55,1.72-4.88,1.23-1.2,2.9-1.84,4.61-1.76,1.62-.09,3.2.54,4.32,1.72,1.1,1.33,1.65,3.02,1.55,4.74.09,1.74-.52,3.45-1.68,4.76-1.15,1.25-2.79,1.93-4.49,1.88ZM72.36,99.78c-1.15-.05-2.27.43-3.02,1.3-.8,1.03-1.19,2.3-1.12,3.6-.07,1.26.33,2.5,1.12,3.48.76.86,1.87,1.33,3.02,1.28,1.13.07,2.22-.39,2.96-1.24.75-1.03,1.12-2.29,1.03-3.56.08-1.28-.28-2.54-1.03-3.58-.73-.87-1.83-1.34-2.96-1.28Z"/>
      <path class="cls-5" d="M88.05,100.4c-.45-.29-.98-.43-1.51-.39-.85.03-1.62.48-2.07,1.2-.62.97-.91,2.12-.85,3.27v6.33h-2.07v-12.41h2.07v2.59h0c.23-.8.68-1.52,1.3-2.07.54-.47,1.23-.73,1.94-.72.4-.02.8.04,1.18.17v2.05Z"/>
      <path class="cls-5" d="M100.17,105.11h-8.75c-.06,1.16.32,2.29,1.06,3.19.78.77,1.84,1.18,2.94,1.12,1.4-.01,2.76-.5,3.85-1.39v1.86c-1.28.84-2.79,1.26-4.32,1.18-1.56.08-3.08-.54-4.14-1.7-1.08-1.34-1.62-3.04-1.51-4.76-.07-1.72.51-3.41,1.63-4.72,1.04-1.2,2.56-1.87,4.14-1.82,1.43-.08,2.82.5,3.77,1.57.95,1.26,1.42,2.81,1.32,4.39l.02,1.08ZM98.1,103.44c.04-.96-.25-1.9-.83-2.67-.57-.65-1.41-1-2.28-.95-.9-.01-1.76.36-2.38,1.01-.68.72-1.11,1.64-1.22,2.63l6.7-.02Z"/>
    </g>
  </g>
</svg>