<?xml version="1.0" encoding="UTF-8"?>
<svg xmlns="http://www.w3.org/2000/svg" viewBox="0 0 150 150">
  <defs>
    <style>
      .cls-1 {
        fill: #f5ea0e;
      }

      .cls-2 {
        fill: #a3cd3a;
      }

      .cls-3 {
        fill: #7ab943;
      }

      .cls-4 {
        fill: #fff;
        stroke: #fff;
        stroke-miterlimit: 10;
        stroke-width: 10px;
      }

      .cls-5 {
        fill: #009d58;
      }
    </style>
  </defs>
  <g id="Capa_4" data-name="Capa 4">
    <rect class="cls-4" x="9.81" y="54.88" width="130.38" height="40.25" rx="2.97" ry="2.97"/>
  </g>
  <g id="Capa_2" data-name="Capa 2">
    <g>
      <path class="cls-3" d="M30.33,72.61l.51,6.78,2.35-17.57h6.12l2.27,17.57.48-6.76,5.3,3.5-1.63,11.9h-6.85l-2.67-15.72-2.6,15.72h-7l-1.6-11.93,5.32-3.51Z"/>
      <path class="cls-5" d="M56.53,77.09v11.1h-5.76v-7.35l5.76-3.75Z"/>
      <path class="cls-5" d="M58.33,75.56v-6.85h6.17v2.48c.26-.8.71-1.45,1.34-1.94.63-.5,1.48-.74,2.54-.74,1.74,0,3.03.4,3.86,1.21.83.81,1.25,1.96,1.25,3.45v15.04h-6.07v-14.56c0-.43-.11-.79-.33-1.09-.22-.3-.57-.45-1.04-.45-.63,0-1.05.22-1.25.65-.2.44-.3,1.02-.3,1.74v4.75l-6.17-3.67Z"/>
      <path class="cls-2" d="M110.16,75.64v-1.91c0-.54-.08-.97-.23-1.3-.15-.33-.47-.49-.96-.49-.63,0-1.07.23-1.33.69-.26.46-.39,1.01-.39,1.65v13.4h-5.99v-18.97h5.99v2.2c.28-.81.76-1.42,1.44-1.81.68-.4,1.63-.6,2.87-.6,1,0,1.87.17,2.61.51.74.34,1.25.8,1.56,1.39.51-.66,1.09-1.14,1.72-1.44.63-.3,1.51-.45,2.63-.45,2.01,0,3.4.45,4.19,1.36.78.91,1.17,2.23,1.17,3.95l-.07,13.87h-6.17v-13.95c0-1.23-.42-1.84-1.26-1.84-.58,0-1,.21-1.26.63-.26.42-.39.93-.39,1.52v5.18l-6.13-3.58Z"/>
      <polygon class="cls-2" points="24.62 74.32 22.95 61.81 29.37 61.81 30.07 71.18 24.62 74.32"/>
      <polygon class="cls-5" points="42.56 71.15 43.22 61.81 49.72 61.81 47.99 74.44 42.56 71.15"/>
      <rect class="cls-2" x="50.77" y="62.04" width="5.76" height="4.35"/>
      <polygon class="cls-3" points="50.77 79.23 50.77 68.68 56.53 68.68 56.53 75.56 50.77 79.23"/>
      <polygon class="cls-3" points="64.75 80.75 64.75 88.04 58.58 88.04 58.58 76.82 64.75 80.75"/>
      <path class="cls-5" d="M81.7,76.97v11.1h-5.76v-7.35l5.76-3.75Z"/>
      <rect class="cls-2" x="75.94" y="61.92" width="5.76" height="4.35"/>
      <polygon class="cls-3" points="75.94 79.11 75.94 68.56 81.7 68.56 81.7 75.44 75.94 79.11"/>
      <g>
        <polygon class="cls-1" points="13.59 78.07 22.84 78.07 21.81 72.93 10.5 72.93 13.59 78.07"/>
        <polygon class="cls-1" points="17.96 85.53 24.13 85.53 23.1 80.39 14.87 80.39 17.96 85.53"/>
      </g>
      <g>
        <polygon class="cls-1" points="136.41 78.07 127.67 78.07 128.19 72.93 139.5 72.93 136.41 78.07"/>
        <polygon class="cls-1" points="132.04 85.53 126.9 85.53 127.42 80.39 135.13 80.39 132.04 85.53"/>
      </g>
      <g>
        <path class="cls-2" d="M99.08,80.72v6.98h-5.92v-2.05c-.41.8-.88,1.38-1.42,1.73-.54.35-1.34.52-2.4.52-1.85,0-3.12-.43-3.8-1.29-.69-.86-1.03-2.13-1.03-3.83v-14.3h5.95v14.36c0,.53.11.91.32,1.13.21.22.55.33,1,.33.61,0,.99-.2,1.15-.59s.24-.96.24-1.69v-5.04s5.92,3.73,5.92,3.73Z"/>
        <polygon class="cls-3" points="93.18 75.4 93.19 68.34 99.08 68.34 99.08 79.13 93.18 75.4"/>
      </g>
      <polygon class="cls-5" points="116.35 80.48 116.35 87.68 110.22 87.68 110.22 76.84 116.35 80.48"/>
    </g>
  </g>
</svg>