<?xml version="1.0" encoding="UTF-8"?>
<svg xmlns="http://www.w3.org/2000/svg" viewBox="0 0 150 150">
  <defs>
    <style>
      .cls-1 {
        fill: #fff;
        stroke: #fff;
        stroke-miterlimit: 10;
        stroke-width: 10px;
      }

      .cls-2 {
        fill: #6db33f;
      }
    </style>
  </defs>
  <g id="Capa_4" data-name="Capa 4">
    <path class="cls-1" d="M134.82,66.79l-22.8-39.49c-2.92-5.08-8.36-8.21-14.22-8.21h-45.6c-5.86,0-11.3,3.14-14.22,8.21l-22.8,39.49c-2.94,5.09-2.94,11.35,0,16.43l22.8,39.49c2.92,5.09,8.36,8.21,14.22,8.21h45.6c5.86,0,11.3-3.12,14.22-8.21l22.8-39.49c2.94-5.08,2.94-11.33,0-16.43Z"/>
  </g>
  <g id="Capa_2" data-name="Capa 2">
    <path class="cls-2" d="M134.82,66.79l-22.8-39.49c-2.92-5.08-8.36-8.21-14.22-8.21h-45.6c-5.86,0-11.3,3.14-14.22,8.21l-22.8,39.49c-2.94,5.09-2.94,11.35,0,16.43l22.8,39.49c2.92,5.09,8.36,8.21,14.22,8.21h45.6c5.86,0,11.3-3.12,14.22-8.21l22.8-39.49c2.94-5.08,2.94-11.33,0-16.43ZM99.44,97.58c-5.88,6.52-13.95,10.36-22.72,10.82-.59.03-1.17.05-1.76.05-8.13,0-15.87-2.96-21.96-8.44-13.47-12.12-14.57-32.95-2.43-46.43.94-1.03,1.94-2.02,3.01-2.92,2.05-1.77,5.16-1.54,6.95.53,1.77,2.05,1.53,5.17-.54,6.95-.72.62-1.43,1.31-2.09,2.05-8.49,9.43-7.74,24.01,1.71,32.51,4.57,4.12,10.45,6.21,16.61,5.88,6.14-.33,11.79-3.02,15.9-7.59,8.49-9.43,7.72-24.01-1.71-32.51-2.02-1.82-2.18-4.94-.36-6.96s4.93-2.18,6.96-.36c13.47,12.12,14.55,32.95,2.43,46.43ZM79.93,45.45v27.86c0,2.71-2.2,4.93-4.93,4.93-1.35,0-2.6-.56-3.48-1.45-.89-.89-1.45-2.14-1.45-3.48v-27.86c0-2.73,2.22-4.93,4.93-4.93s4.93,2.2,4.93,4.93Z"/>
  </g>
</svg>