<?xml version="1.0" encoding="UTF-8"?>
<svg xmlns="http://www.w3.org/2000/svg" viewBox="0 0 150 150">
  <defs>
    <style>
      .cls-1 {
        fill: #2a62ff;
      }

      .cls-2 {
        fill: #fff;
        stroke: #fff;
        stroke-miterlimit: 10;
        stroke-width: 10px;
      }
    </style>
  </defs>
  <g id="Capa_4" data-name="Capa 4">
    <path class="cls-2" d="M75.03,11.17c4.11.23,7.42.27,10.68.59,7.6.73,15.06,2.33,22.17,5.35,4.11,1.78,8,3.93,11,7.45,2.99,3.56,3.17,7.22.36,10.74-1.14,1.39-2.44,2.64-3.89,3.7-4.56,3.43-9.79,5.35-15.2,6.91-9.61,2.69-19.4,3.57-29.32,3.06-4.87-.23-9.7-1.01-14.48-1.74-5.45-.82-10.64-2.51-15.6-4.89-3.35-1.56-6.39-3.48-8.85-6.22-2.82-3.06-3.48-6.31-1.61-9.55.99-1.74,2.46-3.29,3.98-4.57,3.62-3.06,7.91-5.03,12.38-6.4,3.98-1.19,8.04-2.15,12.11-3.06,1.61-.37,3.31-.5,4.96-.64,4.07-.32,8.09-.55,11.31-.73ZM120.68,78.21c.05.64.13,1.1.13,1.55v10.61c0,4.25-1.79,7.64-4.82,10.38-4.29,3.89-9.43,6.22-14.8,8-6.04,2.01-12.16,3.75-18.28,5.44-5.77,1.55-11.67,2.83-17.43,4.35-8.14,2.15-16.23,4.43-23.82,8.23-1.47.74-2.9,1.55-4.29,2.43-.76.46-1.38.5-2.06-.05-1.39-1.24-2.95-2.38-4.2-3.75-3.04-3.38-2.86-7.45-.98-11.25,2.01-4.07,5.54-6.59,9.34-8.69,5.72-3.16,11.89-5.26,18.15-6.86,6.44-1.69,12.92-3.2,19.4-4.85,5.1-1.28,10.19-2.56,15.29-3.79,5.86-1.42,11.66-3.16,17.16-5.67,3.26-1.46,6.31-3.43,9.43-5.17.4-.23.76-.5,1.16-.73.13-.05.27-.09.62-.18h0ZM120.82,55.71c0,1.6-.05,3.2,0,4.8.27,5.26-2.19,9.01-6.17,11.93-4.51,3.29-9.61,5.35-14.84,7-4.47,1.42-8.98,2.7-13.5,3.89-5.14,1.32-10.28,2.42-15.42,3.66-3.35.82-6.75,1.65-10.06,2.52-3.53.91-7.06,1.88-10.55,2.97-7.06,2.24-13.94,4.94-19.93,9.51-.36.28-.85.37-1.25.55-.09-.46-.26-.91-.26-1.42-.09-5.9,1.07-11.43,4.34-16.37,2.77-4.2,6.43-7.36,10.59-9.97,5.5-3.43,11.44-5.9,17.61-7.68,5.99-1.74,12.07-3.34,18.1-4.89,6.26-1.65,12.61-3.06,18.86-4.76,6.12-1.65,12.2-3.48,17.7-6.77,1.16-.68,2.23-1.51,3.35-2.24.32-.23.71-.32,1.07-.46.13.36.31.73.36,1.14.04,2.15,0,4.34,0,6.59ZM120.64,107.65c.09.59.18,1,.18,1.37v10.52c-.05,3.48-2.01,5.85-4.43,8-3.13,2.75-6.75,4.53-10.55,6.04-4.56,1.83-9.3,3.02-14.08,3.84-6.3,1.05-12.65,1.56-19,1.37-1.65-.05-3.26-.09-4.91-.23-6.08-.36-12.07-1.32-17.93-2.93-1.43-.41-2.86-.91-4.29-1.42v-.46c.94-.46,1.88-.96,2.86-1.37,5.85-2.42,11.84-4.25,17.97-5.76,6.39-1.6,12.78-3.15,19.18-4.8,7.38-1.92,14.75-3.89,21.81-6.81,4.16-1.69,8.18-3.66,11.76-6.49.36-.32.85-.5,1.43-.87h0Z"/>
  </g>
  <g id="Capa_2" data-name="Capa 2">
    <path class="cls-1" d="M75.03,11.17c4.11.23,7.42.27,10.68.59,7.6.73,15.06,2.33,22.17,5.35,4.11,1.78,8,3.93,11,7.45,2.99,3.56,3.17,7.22.36,10.74-1.14,1.39-2.44,2.64-3.89,3.7-4.56,3.43-9.79,5.35-15.2,6.91-9.61,2.69-19.4,3.57-29.32,3.06-4.87-.23-9.7-1.01-14.48-1.74-5.45-.82-10.64-2.51-15.6-4.89-3.35-1.56-6.39-3.48-8.85-6.22-2.82-3.06-3.48-6.31-1.61-9.55.99-1.74,2.46-3.29,3.98-4.57,3.62-3.06,7.91-5.03,12.38-6.4,3.98-1.19,8.04-2.15,12.11-3.06,1.61-.37,3.31-.5,4.96-.64,4.07-.32,8.09-.55,11.31-.73ZM120.68,78.21c.05.64.13,1.1.13,1.55v10.61c0,4.25-1.79,7.64-4.82,10.38-4.29,3.89-9.43,6.22-14.8,8-6.04,2.01-12.16,3.75-18.28,5.44-5.77,1.55-11.67,2.83-17.43,4.35-8.14,2.15-16.23,4.43-23.82,8.23-1.47.74-2.9,1.55-4.29,2.43-.76.46-1.38.5-2.06-.05-1.39-1.24-2.95-2.38-4.2-3.75-3.04-3.38-2.86-7.45-.98-11.25,2.01-4.07,5.54-6.59,9.34-8.69,5.72-3.16,11.89-5.26,18.15-6.86,6.44-1.69,12.92-3.2,19.4-4.85,5.1-1.28,10.19-2.56,15.29-3.79,5.86-1.42,11.66-3.16,17.16-5.67,3.26-1.46,6.31-3.43,9.43-5.17.4-.23.76-.5,1.16-.73.13-.05.27-.09.62-.18h0ZM120.82,55.71c0,1.6-.05,3.2,0,4.8.27,5.26-2.19,9.01-6.17,11.93-4.51,3.29-9.61,5.35-14.84,7-4.47,1.42-8.98,2.7-13.5,3.89-5.14,1.32-10.28,2.42-15.42,3.66-3.35.82-6.75,1.65-10.06,2.52-3.53.91-7.06,1.88-10.55,2.97-7.06,2.24-13.94,4.94-19.93,9.51-.36.28-.85.37-1.25.55-.09-.46-.26-.91-.26-1.42-.09-5.9,1.07-11.43,4.34-16.37,2.77-4.2,6.43-7.36,10.59-9.97,5.5-3.43,11.44-5.9,17.61-7.68,5.99-1.74,12.07-3.34,18.1-4.89,6.26-1.65,12.61-3.06,18.86-4.76,6.12-1.65,12.2-3.48,17.7-6.77,1.16-.68,2.23-1.51,3.35-2.24.32-.23.71-.32,1.07-.46.13.36.31.73.36,1.14.04,2.15,0,4.34,0,6.59ZM120.64,107.65c.09.59.18,1,.18,1.37v10.52c-.05,3.48-2.01,5.85-4.43,8-3.13,2.75-6.75,4.53-10.55,6.04-4.56,1.83-9.3,3.02-14.08,3.84-6.3,1.05-12.65,1.56-19,1.37-1.65-.05-3.26-.09-4.91-.23-6.08-.36-12.07-1.32-17.93-2.93-1.43-.41-2.86-.91-4.29-1.42v-.46c.94-.46,1.88-.96,2.86-1.37,5.85-2.42,11.84-4.25,17.97-5.76,6.39-1.6,12.78-3.15,19.18-4.8,7.38-1.92,14.75-3.89,21.81-6.81,4.16-1.69,8.18-3.66,11.76-6.49.36-.32.85-.5,1.43-.87h0Z"/>
  </g>
</svg>