<?xml version="1.0" encoding="UTF-8"?>
<svg xmlns="http://www.w3.org/2000/svg" xmlns:xlink="http://www.w3.org/1999/xlink" viewBox="0 0 150 150">
  <defs>
    <style>
      .cls-1 {
        fill: url(#Degradado_sin_nombre_6);
      }

      .cls-2 {
        fill: url(#Degradado_sin_nombre_5);
      }

      .cls-3 {
        fill: #fff;
        stroke: #fff;
        stroke-miterlimit: 10;
        stroke-width: 10px;
      }
    </style>
    <linearGradient id="Degradado_sin_nombre_6" data-name="Degradado sin nombre 6" x1="-153.63" y1="424.65" x2="-148.58" y2="419.58" gradientTransform="translate(1943.5 5331) scale(12.5 -12.5)" gradientUnits="userSpaceOnUse">
      <stop offset="0" stop-color="#387eb8"/>
      <stop offset="1" stop-color="#366994"/>
    </linearGradient>
    <linearGradient id="Degradado_sin_nombre_5" data-name="Degradado sin nombre 5" x1="-150.52" y1="421.42" x2="-145.1" y2="416.22" gradientTransform="translate(1943.5 5331) scale(12.5 -12.5)" gradientUnits="userSpaceOnUse">
      <stop offset="0" stop-color="#ffe052"/>
      <stop offset="1" stop-color="#ffc331"/>
    </linearGradient>
  </defs>
  <g id="Capa_4" data-name="Capa 4">
    <g>
      <path class="cls-3" d="M74.54,11.45c-32.44,0-30.41,14.07-30.41,14.07l.04,14.57h30.95v4.37H31.87s-20.75-2.36-20.75,30.38,18.11,31.57,18.11,31.57h10.81v-15.19s-.58-18.11,17.83-18.11h30.7s17.25.28,17.25-16.67v-28.02s2.62-16.96-31.27-16.96ZM57.47,21.25c3.08,0,5.57,2.49,5.57,5.57s-2.49,5.57-5.57,5.57c-3.07,0-5.57-2.48-5.57-5.55,0,0,0-.01,0-.02,0-3.08,2.49-5.57,5.57-5.57Z"/>
      <path class="cls-3" d="M75.46,138.55c32.44,0,30.41-14.07,30.41-14.07l-.04-14.57h-30.95v-4.37h43.25s20.75,2.36,20.75-30.37-18.11-31.57-18.11-31.57h-10.81v15.18s.58,18.11-17.83,18.11h-30.7s-17.25-.28-17.25,16.67v28.02s-2.62,16.96,31.27,16.96ZM92.53,128.75c-3.07,0-5.57-2.48-5.57-5.55,0,0,0-.01,0-.02,0-3.07,2.49-5.57,5.57-5.57s5.57,2.49,5.57,5.57-2.49,5.57-5.57,5.57Z"/>
    </g>
  </g>
  <g id="Capa_2" data-name="Capa 2">
    <g>
      <path class="cls-1" d="M74.54,11.45c-32.44,0-30.41,14.07-30.41,14.07l.04,14.57h30.95v4.37H31.87s-20.75-2.36-20.75,30.38,18.11,31.57,18.11,31.57h10.81v-15.19s-.58-18.11,17.83-18.11h30.7s17.25.28,17.25-16.67v-28.02s2.62-16.96-31.27-16.96ZM57.47,21.25c3.08,0,5.57,2.49,5.57,5.57s-2.49,5.57-5.57,5.57c-3.07,0-5.57-2.48-5.57-5.55,0,0,0-.01,0-.02,0-3.08,2.49-5.57,5.57-5.57Z"/>
      <path class="cls-2" d="M75.46,138.55c32.44,0,30.41-14.07,30.41-14.07l-.04-14.57h-30.95v-4.37h43.25s20.75,2.36,20.75-30.37-18.11-31.57-18.11-31.57h-10.81v15.18s.58,18.11-17.83,18.11h-30.7s-17.25-.28-17.25,16.67v28.02s-2.62,16.96,31.27,16.96ZM92.53,128.75c-3.07,0-5.57-2.48-5.57-5.55,0,0,0-.01,0-.02,0-3.07,2.49-5.57,5.57-5.57s5.57,2.49,5.57,5.57-2.49,5.57-5.57,5.57Z"/>
    </g>
  </g>
</svg>