<?xml version="1.0" encoding="UTF-8"?>
<svg id="Capa_2" data-name="Capa 2" xmlns="http://www.w3.org/2000/svg" viewBox="0 0 150 150">
  <defs>
    <style>
      .cls-1 {
        fill: #2cb134;
      }

      .cls-2 {
        fill: #a179dc;
      }

      .cls-3 {
        fill: #fff;
      }

      .cls-4 {
        fill: #280068;
      }

      .cls-5 {
        fill: #390091;
      }
    </style>
  </defs>
  <path class="cls-1" d="M105.07,29.51c.27-.02.52.12.66.35.13.23.12.52-.03.74h0l-27.11,36.82c-.2.22-.48.35-.78.35s-.58-.13-.78-.35h0l-9.56-10.65c-.23-.24-.56-.37-.9-.34s-.64.21-.82.49h0l-5.8,7.36c-.18.41-.12.9.16,1.25h0l17.23,17.86c.2.22.48.35.78.35s.58-.13.78-.35h0l33.84-38.07c.2-.21.51-.29.78-.18.27.1.46.36.47.65h0v92.6c.01.21-.07.42-.22.57-.15.15-.36.23-.57.22H10.12c-.21.01-.42-.07-.57-.22-.15-.15-.23-.36-.22-.57h0V30.3c-.01-.21.07-.42.22-.57.15-.15.36-.23.57-.22h94.95ZM78.43,92.03c-4.66-.08-9.16,1.75-12.44,5.06-3.28,3.31-5.07,7.83-4.95,12.49,0,10.81,7.83,17.7,18.02,17.7,4.71.12,9.34-1.31,13.16-4.07.35-.32.42-.85.16-1.25h0l-2.82-4.23c-.32-.36-.86-.43-1.25-.16-2.45,1.67-5.34,2.6-8.3,2.66-5.48,0-8.93-3.45-9.56-7.52.01-.17.15-.3.31-.31h23.66c.5-.03.91-.44.94-.94h0v-.94c0-10.97-6.89-18.49-16.92-18.49ZM55.09,86.07c-4.76-3.89-10.78-5.9-16.92-5.64-10.65,0-17.23,6.27-17.23,13.79,0,17.08,26.01,11.59,26.01,19.59,0,2.51-2.51,5.01-7.83,5.01-5.06.04-9.94-1.87-13.63-5.33-.22-.21-.52-.31-.82-.28s-.57.19-.75.43h0l-4.07,5.64c-.26.4-.2.93.16,1.25,4.23,3.92,10.18,6.58,18.49,6.58,12.22,0,18.18-6.27,18.49-14.41,0-16.92-26.01-12.06-26.01-19.27,0-2.66,2.35-4.54,6.42-4.54,4.49-.06,8.86,1.43,12.38,4.23.21.17.47.25.74.22.27-.03.51-.16.67-.38h0l4.07-5.48c.17-.21.25-.47.22-.74s-.16-.51-.38-.67ZM78.59,98.92c4.26-.24,7.94,2.95,8.3,7.21-.01.17-.15.3-.31.31h-15.98c-.17-.01-.3-.15-.31-.31.52-4.17,4.1-7.28,8.3-7.21Z"/>
  <g>
    <path class="cls-2" d="M139.02,25.88c0-.91-.19-1.71-.59-2.4-.39-.68-.96-1.24-1.74-1.69-6.4-3.69-12.8-7.36-19.19-11.06-1.72-1-3.4-.96-5.11.05-2.55,1.5-15.29,8.8-19.09,11-1.56.91-2.33,2.29-2.33,4.09,0,7.42,0,14.83,0,22.25,0,.89.19,1.67.56,2.35.39.7.97,1.28,1.76,1.74,3.8,2.2,16.55,9.5,19.09,11,1.71,1.01,3.38,1.05,5.11.05,6.39-3.69,12.8-7.37,19.19-11.06.79-.46,1.38-1.04,1.76-1.74.37-.68.56-1.46.56-2.35,0,0,0-14.83,0-22.25"/>
    <path class="cls-4" d="M115.07,36.93l-23.53,13.55c.39.7.97,1.28,1.76,1.74,3.8,2.2,16.55,9.5,19.09,11,1.71,1.01,3.38,1.05,5.11.05,6.39-3.69,12.8-7.37,19.19-11.06.79-.46,1.38-1.04,1.76-1.74l-23.39-13.55"/>
    <path class="cls-5" d="M139.02,25.88c0-.91-.19-1.71-.59-2.4l-23.36,13.45,23.39,13.55c.37-.68.56-1.46.56-2.35,0,0,0-14.83,0-22.25"/>
    <path class="cls-3" d="M128.93,31.86v2.53h2.53v-2.53h1.27v2.53h2.53v1.27h-2.53v2.53h2.53v1.27h-2.53v2.53h-1.27v-2.53h-2.53v2.53h-1.27v-2.53h-2.53v-1.27h2.53v-2.53h-2.53v-1.27h2.53v-2.53h1.27ZM131.46,35.66h-2.53v2.53h2.53v-2.53Z"/>
    <path class="cls-3" d="M115.13,19.14c6.61,0,12.37,3.59,15.46,8.92l-.03-.05-7.77,4.48c-1.53-2.59-4.34-4.34-7.56-4.38h-.1c-4.91,0-8.89,3.98-8.89,8.89,0,1.61.43,3.11,1.17,4.41,1.53,2.68,4.41,4.48,7.72,4.48s6.22-1.83,7.75-4.53l-.04.06,7.76,4.5c-3.06,5.29-8.74,8.86-15.27,8.94h-.2c-6.63,0-12.41-3.61-15.49-8.97-1.5-2.62-2.37-5.65-2.37-8.89,0-9.86,8-17.86,17.86-17.86Z"/>
  </g>
</svg>