<?xml version="1.0" encoding="UTF-8"?>
<svg xmlns="http://www.w3.org/2000/svg" viewBox="0 0 150 150">
  <defs>
    <style>
      .cls-1 {
        fill: #662d91;
      }

      .cls-2 {
        fill: #c8e9eb;
      }

      .cls-3 {
        fill: #00acd2;
      }

      .cls-4 {
        fill: #fff;
        stroke: #fff;
        stroke-miterlimit: 10;
        stroke-width: 10px;
      }
    </style>
  </defs>
  <g id="Capa_4" data-name="Capa 4">
    <circle class="cls-4" cx="75" cy="75" r="66"/>
  </g>
  <g id="Capa_2" data-name="Capa 2">
    <g>
      <path class="cls-3" d="M112.02,23.33c-15.46-13.35-49.68-19.96-75.32-.8-24.06,16.13-25.25,45.6-25.25,45.6,4.1,16.13,20.35,31.59,51.68,24.06-3.7-21.68,3.55-76.53,48.89-68.86h0Z"/>
      <path class="cls-2" d="M95.91,75.75c-16.92,14.04-68.43,35.47-84.46-7.62-3.83,20.07,6.8,53.47,36.21,66.09,25.99,12.77,53.08-2.02,53.08-2.02,11.92-11.61,17.35-33.09-4.84-56.45"/>
      <path class="cls-1" d="M65.34,56.06c20.62,7.63,64.71,40.72,35.4,76.15,19.29-6.72,41.92-32.42,38.14-64.21-1.94-28.9-26.87-44.66-26.87-44.66-16.01-4.51-37.54,1.83-46.67,32.73"/>
    </g>
  </g>
</svg>