<?xml version="1.0" encoding="UTF-8"?>
<svg xmlns="http://www.w3.org/2000/svg" viewBox="0 0 150 150">
  <defs>
    <style>
      .cls-1 {
        fill: #2cb134;
      }

      .cls-2 {
        fill: #fff;
        stroke: #fff;
        stroke-miterlimit: 10;
        stroke-width: 10px;
      }
    </style>
  </defs>
  <g id="Capa_4" data-name="Capa 4">
    <path class="cls-2" d="M125.81,9.35c.32-.02.61.14.77.42.16.27.14.61-.03.88h0l-31.92,43.36c-.23.26-.57.42-.92.42s-.69-.15-.92-.42h0l-11.25-12.55c-.27-.29-.66-.43-1.06-.39s-.75.25-.97.58h0l-6.83,8.67c-.22.49-.15,1.06.18,1.48h0l20.3,21.03c.23.26.57.42.92.42s.69-.15.92-.42h0l39.85-44.83c.24-.25.6-.34.92-.22.32.12.54.43.55.77h0v109.04c.02.25-.08.49-.25.67-.18.18-.42.27-.67.25H14c-.25.02-.49-.08-.67-.25-.18-.18-.27-.42-.25-.67h0V10.27c-.02-.25.08-.49.25-.67.18-.18.42-.27.67-.25h111.81ZM113.26,106.95"/>
  </g>
  <g id="Capa_2" data-name="Capa 2">
    <path class="cls-1" d="M126.11,10.42c.32-.02.61.14.77.42.16.27.14.61-.03.88h0l-31.92,43.36c-.23.26-.57.42-.92.42s-.69-.15-.92-.42h0l-11.25-12.55c-.27-.29-.66-.43-1.06-.39s-.75.25-.97.58h0l-6.83,8.67c-.22.49-.15,1.06.18,1.48h0l20.3,21.03c.23.26.57.42.92.42s.69-.15.92-.42h0l39.85-44.83c.24-.25.6-.34.92-.22.32.12.54.43.55.77h0v109.04c.02.25-.08.49-.25.67-.18.18-.42.27-.67.25H14.3c-.25.02-.49-.08-.67-.25-.18-.18-.27-.42-.25-.67h0V11.35c-.02-.25.08-.49.25-.67.18-.18.42-.27.67-.25h111.81ZM94.74,84.04c-5.49-.1-10.79,2.06-14.65,5.96-3.87,3.9-5.97,9.21-5.83,14.71,0,12.73,9.23,20.85,21.22,20.85,5.55.14,11-1.55,15.5-4.8.42-.38.5-1.01.18-1.48h0l-3.32-4.98c-.37-.43-1.01-.51-1.48-.18-2.89,1.97-6.28,3.06-9.78,3.14-6.46,0-10.52-4.06-11.25-8.86.01-.2.17-.36.37-.37h27.86c.59-.04,1.07-.51,1.11-1.11h0v-1.11c0-12.92-8.12-21.77-19.93-21.77ZM67.25,77.03c-5.6-4.58-12.69-6.94-19.93-6.64-12.55,0-20.3,7.38-20.3,16.24,0,20.11,30.63,13.65,30.63,23.06,0,2.95-2.95,5.9-9.23,5.9-5.96.05-11.71-2.2-16.05-6.27-.26-.24-.61-.36-.96-.33s-.67.22-.88.51h0l-4.8,6.64c-.31.47-.23,1.1.18,1.48,4.98,4.61,11.99,7.75,21.77,7.75,14.39,0,21.4-7.38,21.77-16.97,0-19.93-30.63-14.21-30.63-22.69,0-3.14,2.77-5.35,7.56-5.35,5.29-.07,10.44,1.69,14.58,4.98.24.2.56.29.87.26.31-.03.6-.19.79-.44h0l4.8-6.46c.2-.24.29-.56.26-.87s-.19-.6-.44-.79ZM94.93,92.16c5.02-.28,9.35,3.48,9.78,8.49-.01.2-.17.36-.37.37h-18.82c-.2-.01-.36-.17-.37-.37.62-4.91,4.83-8.57,9.78-8.49Z"/>
  </g>
</svg>