<?xml version="1.0" encoding="UTF-8"?>
<svg xmlns="http://www.w3.org/2000/svg" viewBox="0 0 150 150">
  <defs>
    <style>
      .cls-1 {
        fill: #77bc1f;
      }

      .cls-2 {
        fill: #fff;
        stroke: #fff;
        stroke-miterlimit: 10;
        stroke-width: 10px;
      }
    </style>
  </defs>
  <g id="Capa_4" data-name="Capa 4">
    <path class="cls-2" d="M127.35,16.31c-1.81,4.32-4.1,8.42-6.87,12.19-12.09-12.09-28.5-18.89-45.6-18.89C39.51,9.61,10.41,38.75,10.41,74.17c0,17.67,7.23,34.58,20.03,46.77l2.38,2.11c11.62,9.8,26.34,15.19,41.53,15.19,33.63,0,61.89-26.36,64.29-59.95,1.76-16.44-3.06-37.24-11.29-61.98h0Z"/>
  </g>
  <g id="Capa_2" data-name="Capa 2">
    <path class="cls-1" d="M127.65,17.38c-1.81,4.32-4.1,8.42-6.87,12.19-12.09-12.09-28.5-18.89-45.6-18.89C39.81,10.69,10.71,39.82,10.71,75.24c0,17.67,7.23,34.58,20.03,46.77l2.38,2.11c11.62,9.8,26.34,15.19,41.53,15.19,33.63,0,61.89-26.36,64.29-59.95,1.76-16.44-3.06-37.24-11.29-61.98h0ZM39.9,122.38c-1.04,1.29-2.63,2.04-4.29,2.04-3.03,0-5.51-2.5-5.51-5.53s2.5-5.53,5.51-5.53c1.26,0,2.5.44,3.47,1.24,2.36,1.91,2.73,5.41.82,7.77h0ZM127.38,103.06c-15.91,21.22-49.89,14.07-71.67,15.09,0,0-3.87.23-7.75.87,0,0,1.46-.62,3.35-1.34,15.29-5.33,22.52-6.36,31.82-11.14,17.5-8.91,34.8-28.4,38.4-48.68-6.67,19.51-26.86,36.27-45.27,43.09-12.61,4.66-35.38,9.18-35.38,9.18l-.92-.49c-15.51-7.55-15.98-41.16,12.21-52.01,12.34-4.76,24.15-2.14,37.48-5.33,14.23-3.38,30.7-14.07,37.39-28,7.5,22.29,16.53,57.19.35,78.76h0Z"/>
  </g>
</svg>